PathFileType   4   (X/Y/Z)
DataRate	CameraRate	NumFrames	NumMarkers	Units	OrigDataRate	OrigDataStartFrame	OrigNumFrames
120.0	120.0	7	37	mm	120.0	46	122
Frame#	Time	midhip	hip_r	hip_l	knee_r	knee_l	ankle_r	ankle_l	midasis	asis_r	asis_l	psis_r	psis_l	epicondLat_r	epicondLat_l	epicondMed_r	epicondMed_l	malleolusLat_r	malleolusLat_l	malleolusMedv_r	malleolusMedv_l	neck	subclavicle_r	subclavicle_l	sternalnotch	xyphoidprocess	thighwand_r	thighwand_l	upperleg1_r	upperleg1_l	upperleg2_r	upperleg2_l	shankwand_r	shankwand_l	lowerleg1_r	lowerleg1_l	toe_r	toe_l
 	 	X1	Y1	Z1	X2	Y2	Z2	X3	Y3	Z3	X4	Y4	Z4	X5	Y5	Z5	X6	Y6	Z6	X7	Y7	Z7	X8	Y8	Z8	X9	Y9	Z9	X10	Y10	Z10	X11	Y11	Z11	X12	Y12	Z12	X13	Y13	Z13	X14	Y14	Z14	X15	Y15	Z15	X16	Y16	Z16	X17	Y17	Z17	X18	Y18	Z18	X19	Y19	Z19	X20	Y20	Z20	X21	Y21	Z21	X22	Y22	Z22	X23	Y23	Z23	X24	Y24	Z24	X25	Y25	Z25	X26	Y26	Z26	X27	Y27	Z27	X28	Y28	Z28	X29	Y29	Z29	X30	Y30	Z30	X31	Y31	Z31	X32	Y32	Z32	X33	Y33	Z33	X34	Y34	Z34	X35	Y35	Z35	X36	Y36	Z36	X37	Y37	Z37

	46	0.48333	1496.991	662.193	-202.351	1494.436	667.969	-138.745	1482.527	672.041	-263.943	1656.848	381.972	-158.325	1383.620	380.389	-230.850	1796.210	85.156	-153.856	1270.782	74.727	-219.214	1554.349	733.197	-205.554	1563.289	730.140	-111.568	1545.409	736.254	-299.540	1413.182	769.856	-163.963	1404.636	770.536	-218.456	1654.581	377.246	-108.097	1373.696	378.200	-279.806	1642.323	365.613	-203.502	1388.820	383.673	-182.189	1787.028	81.327	-121.867	1263.841	76.004	-252.985	1797.095	97.475	-180.138	1264.186	83.727	-190.721	1446.159	1118.992	-208.471	1527.098	1070.120	-145.437	1523.987	1070.215	-275.015	1519.753	1059.066	-212.533	1534.962	915.716	-212.390	1609.700	443.885	-21.402	1537.393	443.055	-297.889	1608.924	515.685	-84.542	1498.585	516.525	-234.837	1654.616	447.413	-104.285	1457.713	438.027	-220.328	1722.614	163.551	-50.199	1380.182	139.410	-263.810	1714.620	222.669	-108.150	1343.162	213.677	-244.665	1887.324	109.082	-143.658	1355.106	36.952	-220.935
	47	0.49167	1506.864	660.324	-202.170	1504.356	666.074	-138.522	1492.354	670.297	-263.706	1666.683	380.402	-158.933	1389.418	380.209	-230.799	1811.595	86.071	-155.003	1271.814	76.370	-219.133	1564.235	731.366	-205.299	1573.254	728.192	-111.238	1555.217	734.539	-299.359	1423.043	767.972	-163.500	1414.535	768.810	-218.002	1664.438	375.539	-108.718	1379.387	378.216	-279.742	1648.444	362.831	-204.026	1395.038	383.292	-182.012	1802.362	81.952	-123.065	1264.910	77.745	-252.907	1812.698	99.063	-181.354	1265.270	85.335	-190.662	1455.895	1116.964	-207.822	1536.664	1067.671	-144.758	1533.559	1068.033	-274.437	1529.323	1056.833	-211.891	1543.975	913.372	-212.065	1619.661	441.814	-21.993	1544.095	441.029	-298.059	1618.336	513.616	-85.161	1506.236	514.873	-234.678	1662.990	444.899	-105.294	1464.510	436.931	-220.227	1736.124	162.732	-51.320	1382.262	139.267	-263.714	1727.305	222.186	-109.066	1345.752	213.906	-244.259	1902.705	111.246	-144.396	1355.423	37.024	-220.709
	48	0.50000	1516.851	658.576	-201.960	1514.424	664.328	-138.269	1502.324	668.617	-263.441	1676.822	379.052	-159.520	1395.651	379.999	-230.750	1825.436	86.439	-156.150	1273.008	78.167	-219.099	1574.265	729.641	-205.060	1583.364	726.416	-110.931	1565.165	732.866	-299.189	1433.021	766.226	-163.108	1424.590	767.169	-217.630	1674.691	374.099	-109.309	1385.500	378.209	-279.676	1664.399	362.654	-204.809	1401.981	382.970	-181.675	1816.221	82.127	-124.232	1266.153	79.648	-252.878	1826.858	99.915	-182.636	1266.567	86.992	-190.609	1465.701	1115.060	-207.056	1546.386	1065.350	-143.991	1543.247	1065.908	-273.720	1538.988	1054.713	-211.185	1553.137	911.123	-211.545	1630.105	440.108	-22.531	1551.114	439.084	-298.271	1628.756	511.915	-85.617	1514.520	513.402	-234.720	1675.238	444.405	-105.301	1471.848	435.742	-220.125	1748.911	161.884	-52.361	1384.545	139.147	-263.637	1739.517	221.436	-109.890	1348.195	214.145	-243.365	1916.667	112.388	-145.269	1355.791	37.120	-220.502
	49	0.50833	1526.960	656.964	-201.716	1524.666	662.750	-137.986	1512.444	667.012	-263.148	1687.263	377.921	-160.094	1402.334	379.768	-230.710	1837.755	86.173	-157.292	1274.390	80.136	-219.114	1584.451	728.039	-204.851	1593.648	724.832	-110.663	1575.253	731.246	-299.039	1443.133	764.634	-162.778	1434.819	765.625	-217.335	1685.339	372.925	-109.879	1392.046	378.189	-279.615	1675.876	361.845	-205.375	1409.354	382.431	-181.443	1828.622	81.769	-125.364	1267.590	81.732	-252.900	1839.500	99.874	-183.816	1267.942	88.806	-190.611	1475.560	1113.294	-206.167	1556.133	1063.161	-143.133	1553.095	1063.961	-272.901	1548.749	1052.743	-210.409	1562.453	909.035	-210.978	1641.039	438.768	-23.010	1558.465	437.235	-298.537	1639.718	510.779	-85.877	1523.071	511.820	-234.820	1686.393	443.334	-105.649	1479.558	434.442	-220.120	1760.975	160.972	-53.318	1387.047	139.069	-263.592	1751.110	220.439	-110.811	1351.458	214.375	-242.702	1929.224	112.428	-146.299	1356.226	37.241	-220.308
	50	0.51667	1537.210	655.500	-201.437	1535.109	661.350	-137.676	1522.724	665.495	-262.825	1697.989	376.997	-160.667	1409.471	379.529	-230.686	1848.594	85.234	-158.422	1275.991	82.294	-219.179	1594.812	726.571	-204.680	1604.137	723.450	-110.446	1585.486	729.691	-298.914	1453.409	763.206	-162.495	1445.248	764.186	-217.103	1696.359	372.002	-110.441	1399.031	378.170	-279.565	1686.346	361.163	-205.926	1416.664	381.841	-181.248	1839.605	80.840	-126.451	1269.249	84.013	-252.970	1850.406	98.918	-185.143	1269.496	90.845	-190.672	1485.577	1111.693	-205.288	1565.991	1061.172	-142.254	1563.064	1062.250	-272.005	1558.615	1050.953	-209.569	1571.922	907.169	-210.404	1652.440	437.776	-23.438	1566.160	435.494	-298.863	1651.026	510.122	-86.104	1531.743	510.109	-234.749	1697.518	442.448	-106.168	1487.275	433.034	-220.048	1772.323	159.971	-54.193	1389.782	139.055	-263.597	1762.229	219.426	-111.790	1355.655	214.597	-242.423	1940.408	111.339	-147.489	1356.740	37.389	-220.123
	51	0.52500	1547.633	654.187	-201.120	1545.778	660.133	-137.340	1533.180	664.076	-262.474	1708.968	376.262	-161.248	1417.060	379.295	-230.680	1858.027	83.640	-159.524	1277.846	84.651	-219.293	1605.368	725.244	-204.551	1614.858	722.274	-110.287	1595.878	728.215	-298.815	1463.890	761.944	-162.242	1455.897	762.859	-216.915	1707.705	371.304	-111.007	1406.457	378.164	-279.530	1698.070	360.910	-206.494	1424.398	381.529	-180.897	1849.238	79.352	-127.484	1271.159	86.505	-253.088	1859.659	97.081	-186.573	1271.404	93.193	-190.760	1495.695	1110.260	-204.394	1575.903	1059.447	-141.326	1573.154	1060.763	-271.063	1568.592	1049.366	-208.674	1581.575	905.553	-209.736	1664.259	437.092	-23.831	1574.212	433.867	-299.245	1662.745	509.682	-86.510	1540.939	508.539	-234.671	1709.262	442.182	-106.687	1495.403	431.788	-219.907	1782.975	158.874	-54.990	1392.770	139.126	-263.664	1772.999	218.416	-112.621	1360.303	215.075	-242.322	1950.278	109.148	-148.825	1357.345	37.564	-219.946
	52	0.53333	1558.281	653.024	-200.769	1556.692	659.101	-136.984	1543.833	662.768	-262.100	1720.150	375.692	-161.839	1425.099	379.075	-230.694	1866.164	81.468	-160.587	1279.995	87.211	-219.455	1616.140	724.065	-204.463	1625.830	721.302	-110.186	1606.450	726.828	-298.740	1474.622	760.847	-162.001	1466.785	761.656	-216.753	1719.307	370.798	-111.584	1414.325	378.180	-279.511	1710.469	361.205	-207.270	1433.104	381.137	-180.554	1857.626	77.367	-128.454	1273.358	89.209	-253.251	1867.550	94.350	-187.437	1273.695	95.753	-190.892	1505.778	1108.981	-203.443	1585.835	1057.945	-140.321	1583.302	1059.522	-270.123	1578.686	1047.998	-207.732	1591.447	904.181	-209.058	1676.417	436.671	-24.213	1582.636	432.356	-299.671	1674.855	509.591	-86.930	1550.618	507.082	-234.771	1721.523	442.319	-107.296	1504.357	430.743	-219.908	1792.967	157.689	-55.720	1396.033	139.297	-263.803	1783.268	217.248	-113.314	1365.252	215.817	-242.346	1958.928	105.935	-150.274	1358.046	37.766	-219.776
